<svg xmlns="http://www.w3.org/2000/svg" width="3210.46" height="2675.42" enable-background="new 0 0 3000 2500" viewBox="-105.23 -87.71 3210.46 2675.42" id="coffee-cup-with-coffee-beans"><rect width="2918.6" height="2432.2" x="40.7" y="33.9" fill="none"></rect><g opacity=".15"><ellipse cx="1580.7" cy="1769.2" fill="#4c0000" opacity="0" rx="187.2" ry="426.2" transform="rotate(-89.897 1580.7 1769.198)"></ellipse><ellipse cx="1580.7" cy="1769.2" fill="#4a0101" opacity=".038" rx="182.7" ry="415.9" transform="rotate(-89.897 1580.7 1769.198)"></ellipse><ellipse cx="1580.7" cy="1769.2" fill="#480202" opacity=".077" rx="178.2" ry="405.6" transform="rotate(-89.897 1580.7 1769.198)"></ellipse><ellipse cx="1580.7" cy="1769.2" fill="#460303" opacity=".115" rx="173.6" ry="395.2" transform="rotate(-89.897 1580.7 1769.198)"></ellipse><ellipse cx="1580.7" cy="1769.2" fill="#440404" opacity=".154" rx="169.1" ry="384.9" transform="rotate(-89.897 1580.7 1769.198)"></ellipse><ellipse cx="1580.7" cy="1769.2" fill="#420505" opacity=".192" rx="164.6" ry="374.6" transform="rotate(-89.897 1580.7 1769.198)"></ellipse><ellipse cx="1580.7" cy="1769.2" fill="#400606" opacity=".231" rx="160" ry="364.3" transform="rotate(-89.897 1580.7 1769.198)"></ellipse><ellipse cx="1580.7" cy="1769.2" fill="#3e0606" opacity=".269" rx="155.5" ry="354" transform="rotate(-89.897 1580.7 1769.198)"></ellipse><ellipse cx="1580.7" cy="1769.2" fill="#3c0707" opacity=".308" rx="151" ry="343.7" transform="rotate(-89.897 1580.7 1769.198)"></ellipse><ellipse cx="1580.7" cy="1769.2" fill="#3a0808" opacity=".346" rx="146.4" ry="333.4" transform="rotate(-89.897 1580.7 1769.198)"></ellipse><ellipse cx="1580.7" cy="1769.2" fill="#380909" opacity=".385" rx="141.9" ry="323" transform="rotate(-89.897 1580.7 1769.198)"></ellipse><ellipse cx="1580.7" cy="1769.2" fill="#360a0a" opacity=".423" rx="137.4" ry="312.7" transform="rotate(-89.897 1580.7 1769.198)"></ellipse><ellipse cx="1580.7" cy="1769.2" fill="#340b0b" opacity=".462" rx="132.8" ry="302.4" transform="rotate(-89.897 1580.7 1769.198)"></ellipse><ellipse cx="1580.7" cy="1769.2" fill="#330c0c" opacity=".5" rx="128.3" ry="292.1" transform="rotate(-89.897 1580.7 1769.198)"></ellipse><ellipse cx="1580.7" cy="1769.2" fill="#310d0d" opacity=".538" rx="123.8" ry="281.8" transform="rotate(-89.897 1580.7 1769.198)"></ellipse><ellipse cx="1580.7" cy="1769.2" fill="#2f0e0e" opacity=".577" rx="119.3" ry="271.5" transform="rotate(-89.897 1580.7 1769.198)"></ellipse><ellipse cx="1580.7" cy="1769.2" fill="#2d0f0f" opacity=".615" rx="114.7" ry="261.2" transform="rotate(-89.897 1580.7 1769.198)"></ellipse><ellipse cx="1580.7" cy="1769.2" fill="#2b1010" opacity=".654" rx="110.2" ry="250.8" transform="rotate(-89.897 1580.7 1769.198)"></ellipse><ellipse cx="1580.7" cy="1769.2" fill="#291111" opacity=".692" rx="105.7" ry="240.5" transform="rotate(-89.897 1580.7 1769.198)"></ellipse><ellipse cx="1580.7" cy="1769.2" fill="#271212" opacity=".731" rx="101.1" ry="230.2" transform="rotate(-89.897 1580.7 1769.198)"></ellipse><ellipse cx="1580.7" cy="1769.2" fill="#251212" opacity=".769" rx="96.6" ry="219.9" transform="rotate(-89.897 1580.7 1769.198)"></ellipse><ellipse cx="1580.7" cy="1769.2" fill="#231313" opacity=".808" rx="92.1" ry="209.6" transform="rotate(-89.897 1580.7 1769.198)"></ellipse><ellipse cx="1580.7" cy="1769.2" fill="#211414" opacity=".846" rx="87.5" ry="199.3" transform="rotate(-89.897 1580.7 1769.198)"></ellipse><ellipse cx="1580.7" cy="1769.2" fill="#1f1515" opacity=".885" rx="83" ry="189" transform="rotate(-89.897 1580.7 1769.198)"></ellipse><ellipse cx="1580.7" cy="1769.2" fill="#1d1616" opacity=".923" rx="78.5" ry="178.6" transform="rotate(-89.897 1580.7 1769.198)"></ellipse><ellipse cx="1580.7" cy="1769.2" fill="#1b1717" opacity=".962" rx="73.9" ry="168.3" transform="rotate(-89.897 1580.7 1769.198)"></ellipse><ellipse cx="1580.7" cy="1769.2" fill="#191818" rx="69.4" ry="158" transform="rotate(-89.897 1580.7 1769.198)"></ellipse></g><linearGradient id="a" x1="1928.253" x2="1179.022" y1="1454" y2="1454" gradientUnits="userSpaceOnUse"><stop offset="0" stop-color="#f2f2f2"></stop><stop offset="1" stop-color="#a8a8a8"></stop></linearGradient><ellipse cx="1434.5" cy="1454" fill="url(#a)" rx="684.8" ry="379.9"></ellipse><linearGradient id="b" x1="1927.479" x2="1178.247" y1="1453.064" y2="1453.064" gradientUnits="userSpaceOnUse"><stop offset="0" stop-color="#fafafa"></stop><stop offset="1" stop-color="#eaeaea"></stop></linearGradient><ellipse cx="1433.7" cy="1453.1" fill="url(#b)" rx="684.8" ry="379.9"></ellipse><linearGradient id="c" x1="1928.436" x2="1179.204" y1="1454.031" y2="1454.031" gradientUnits="userSpaceOnUse"><stop offset="0" stop-color="#f2f2f2"></stop><stop offset="1" stop-color="#a8a8a8"></stop></linearGradient><ellipse cx="1434.6" cy="1454" fill="url(#c)" rx="684.8" ry="379.9"></ellipse><linearGradient id="d" x1="1927.662" x2="1178.43" y1="1453.094" y2="1453.094" gradientUnits="userSpaceOnUse"><stop offset="0" stop-color="#fafafa"></stop><stop offset="1" stop-color="#eaeaea"></stop></linearGradient><ellipse cx="1433.9" cy="1453.1" fill="url(#d)" rx="684.8" ry="379.9"></ellipse><linearGradient id="e" x1="962.7" x2="2034.538" y1="1441.429" y2="1441.429" gradientUnits="userSpaceOnUse"><stop offset="0" stop-color="#fafafa"></stop><stop offset="1" stop-color="#eaeaea"></stop></linearGradient><ellipse cx="1433.7" cy="1441.4" fill="url(#e)" rx="684.8" ry="379.9"></ellipse><path fill="#fff" d="M1433.7,1819.7c-377.7,0-683.9-169.6-684.7-379.1c0,0.3,0,0.5,0,0.8c0,209.8,306.6,379.9,684.8,379.9     c378.2,0,684.8-170.1,684.8-379.9c0-0.3,0-0.5,0-0.8C2117.6,1650,1811.4,1819.7,1433.7,1819.7z"></path><linearGradient id="f" x1="968.784" x2="1898.599" y1="1440.609" y2="1440.609" gradientUnits="userSpaceOnUse"><stop offset="0" stop-color="#1e1e1e"></stop><stop offset="1" stop-color="#2d2d2d" stop-opacity=".3"></stop></linearGradient><ellipse cx="1433.7" cy="1440.6" fill="url(#f)" opacity=".2" rx="464.9" ry="205.3"></ellipse><linearGradient id="g" x1="2021.771" x2="2010.272" y1="998.043" y2="1236.973" gradientUnits="userSpaceOnUse"><stop offset="0" stop-color="#f7f6f6"></stop><stop offset="1" stop-color="#e1dfdf"></stop></linearGradient><path fill="url(#g)" d="M1951.6,1348.4c-58.3,0-100.8-15.4-103.6-16.4l13.3-36c0.9,0.3,93,33.2,186.1-3.6    c42.8-16.9,79.8-93.2,87.9-181.5c6.2-66.8-6.8-122.4-32.3-138.4c-65-40.8-166.3,43.8-167.3,44.7l-25-29    c5-4.3,122.9-104.4,212.7-48.1c39.2,24.6,57.9,89.8,50.1,174.4c-8.1,87.5-45.8,187.5-112,213.6    C2022.7,1343.5,1984.6,1348.4,1951.6,1348.4z"></path><linearGradient id="h" x1="1879.333" x2="2206.56" y1="1143.273" y2="1143.273" gradientUnits="userSpaceOnUse"><stop offset="0" stop-color="#f7f6f6"></stop><stop offset="1" stop-color="#e1dfdf"></stop></linearGradient><path fill="url(#h)" d="M1982.9,1356c-58.3,0-100.8-15.4-103.6-16.4l13.3-36c0.9,0.3,93,33.2,186.1-3.6    c42.8-16.9,79.8-93.2,87.9-181.5c6.2-66.8-6.8-122.4-32.3-138.4c-65-40.8-166.3,43.8-167.3,44.7l-25-29    c5-4.3,122.9-104.4,212.7-48.1c39.2,24.6,57.9,89.8,50.1,174.4c-8.1,87.5-45.8,187.5-112,213.6C2054,1351,2015.9,1356,1982.9,1356    z"></path><linearGradient id="i" x1="1933.3" x2="1007.962" y1="1243.853" y2="1243.853" gradientUnits="userSpaceOnUse"><stop offset=".177" stop-color="#fafafa"></stop><stop offset="1" stop-color="#cecbcb"></stop></linearGradient><path fill="url(#i)" d="M1964.3,935.6h-530.6H903.1c-56.5,648.6,530.6,616.2,530.6,616.2S2020.8,1584.2,1964.3,935.6z"></path><linearGradient id="j" x1="903.099" x2="1964.269" y1="935.6" y2="935.6" gradientUnits="userSpaceOnUse"><stop offset=".177" stop-color="#fafafa"></stop><stop offset="1" stop-color="#cecbcb"></stop></linearGradient><ellipse cx="1433.7" cy="935.6" fill="url(#j)" rx="530.6" ry="236.2"></ellipse><linearGradient id="k" x1="1868.823" x2="1236.361" y1="935.606" y2="935.606" gradientUnits="userSpaceOnUse"><stop offset=".177" stop-color="#fafafa"></stop><stop offset="1" stop-color="#cecbcb"></stop></linearGradient><path fill="url(#k)" d="M1920.3,935.6c0,27-11.4,52.7-32.2,76.5c-70.1,80.2-247.2,137.1-454.5,137.1c-207.3,0-384.4-56.9-454.5-137.1   c-20.8-23.8-32.2-49.5-32.2-76.5c0-118,217.9-213.6,486.7-213.6S1920.3,817.6,1920.3,935.6z"></path><linearGradient id="l" x1="1840.034" x2="1249.417" y1="1012.078" y2="1012.078" gradientUnits="userSpaceOnUse"><stop offset="0" stop-color="#6b402e"></stop><stop offset="1" stop-color="#282827"></stop></linearGradient><path fill="url(#l)" d="M1888.1,1012.1c-70.1,80.2-247.2,137.1-454.5,137.1c-158.6,0-299.5-33.3-388.4-84.9   c-27.3-15.9-49.6-33.3-66.1-52.2c68.5-78.3,239.1-134.5,440.3-137.1c4.7-0.1,9.4-0.1,14.1-0.1   C1641.1,875,1818.1,931.9,1888.1,1012.1z"></path><g opacity=".15"><ellipse cx="2315.6" cy="1865.4" fill="#4c0000" opacity="0" rx="37.1" ry="84.5" transform="rotate(-89.897 2315.592 1865.38)"></ellipse><ellipse cx="2315.6" cy="1865.4" fill="#4a0101" opacity=".038" rx="36.2" ry="82.4" transform="rotate(-89.897 2315.592 1865.38)"></ellipse><ellipse cx="2315.6" cy="1865.4" fill="#480202" opacity=".077" rx="35.3" ry="80.4" transform="rotate(-89.897 2315.592 1865.38)"></ellipse><ellipse cx="2315.6" cy="1865.4" fill="#460303" opacity=".115" rx="34.4" ry="78.4" transform="rotate(-89.897 2315.592 1865.38)"></ellipse><ellipse cx="2315.6" cy="1865.4" fill="#440404" opacity=".154" rx="33.5" ry="76.3" transform="rotate(-89.897 2315.592 1865.38)"></ellipse><ellipse cx="2315.6" cy="1865.4" fill="#420505" opacity=".192" rx="32.6" ry="74.3" transform="rotate(-89.897 2315.592 1865.38)"></ellipse><ellipse cx="2315.6" cy="1865.4" fill="#400606" opacity=".231" rx="31.7" ry="72.2" transform="rotate(-89.897 2315.592 1865.38)"></ellipse><ellipse cx="2315.6" cy="1865.4" fill="#3e0606" opacity=".269" rx="30.8" ry="70.2" transform="rotate(-89.897 2315.592 1865.38)"></ellipse><ellipse cx="2315.6" cy="1865.4" fill="#3c0707" opacity=".308" rx="29.9" ry="68.1" transform="rotate(-89.897 2315.592 1865.38)"></ellipse><ellipse cx="2315.6" cy="1865.4" fill="#3a0808" opacity=".346" rx="29" ry="66.1" transform="rotate(-89.897 2315.592 1865.38)"></ellipse><ellipse cx="2315.6" cy="1865.4" fill="#380909" opacity=".385" rx="28.1" ry="64" transform="rotate(-89.897 2315.592 1865.38)"></ellipse><ellipse cx="2315.6" cy="1865.4" fill="#360a0a" opacity=".423" rx="27.2" ry="62" transform="rotate(-89.897 2315.592 1865.38)"></ellipse><ellipse cx="2315.6" cy="1865.4" fill="#340b0b" opacity=".462" rx="26.3" ry="60" transform="rotate(-89.897 2315.592 1865.38)"></ellipse><ellipse cx="2315.6" cy="1865.4" fill="#330c0c" opacity=".5" rx="25.4" ry="57.9" transform="rotate(-89.897 2315.592 1865.38)"></ellipse><ellipse cx="2315.6" cy="1865.4" fill="#310d0d" opacity=".538" rx="24.5" ry="55.9" transform="rotate(-89.897 2315.592 1865.38)"></ellipse><ellipse cx="2315.6" cy="1865.4" fill="#2f0e0e" opacity=".577" rx="23.6" ry="53.8" transform="rotate(-89.897 2315.592 1865.38)"></ellipse><ellipse cx="2315.6" cy="1865.4" fill="#2d0f0f" opacity=".615" rx="22.7" ry="51.8" transform="rotate(-89.897 2315.592 1865.38)"></ellipse><ellipse cx="2315.6" cy="1865.4" fill="#2b1010" opacity=".654" rx="21.8" ry="49.7" transform="rotate(-89.897 2315.592 1865.38)"></ellipse><ellipse cx="2315.6" cy="1865.4" fill="#291111" opacity=".692" rx="20.9" ry="47.7" transform="rotate(-89.897 2315.592 1865.38)"></ellipse><ellipse cx="2315.6" cy="1865.4" fill="#271212" opacity=".731" rx="20" ry="45.6" transform="rotate(-89.897 2315.592 1865.38)"></ellipse><ellipse cx="2315.6" cy="1865.4" fill="#251212" opacity=".769" rx="19.2" ry="43.6" transform="rotate(-89.897 2315.592 1865.38)"></ellipse><ellipse cx="2315.6" cy="1865.4" fill="#231313" opacity=".808" rx="18.3" ry="41.5" transform="rotate(-89.897 2315.592 1865.38)"></ellipse><ellipse cx="2315.6" cy="1865.4" fill="#211414" opacity=".846" rx="17.4" ry="39.5" transform="rotate(-89.897 2315.592 1865.38)"></ellipse><ellipse cx="2315.6" cy="1865.4" fill="#1f1515" opacity=".885" rx="16.5" ry="37.5" transform="rotate(-89.897 2315.592 1865.38)"></ellipse><ellipse cx="2315.6" cy="1865.4" fill="#1d1616" opacity=".923" rx="15.6" ry="35.4" transform="rotate(-89.897 2315.592 1865.38)"></ellipse><ellipse cx="2315.6" cy="1865.4" fill="#1b1717" opacity=".962" rx="14.7" ry="33.4" transform="rotate(-89.897 2315.592 1865.38)"></ellipse><ellipse cx="2315.6" cy="1865.4" fill="#191818" rx="13.8" ry="31.3" transform="rotate(-89.897 2315.592 1865.38)"></ellipse></g><g opacity=".15"><ellipse cx="2014.1" cy="1990.8" fill="#4c0000" opacity="0" rx="37.1" ry="131.2" transform="rotate(-89.894 2014.116 1990.792)"></ellipse><ellipse cx="2014.1" cy="1990.8" fill="#4a0101" opacity=".038" rx="36.2" ry="128" transform="rotate(-89.894 2014.116 1990.792)"></ellipse><ellipse cx="2014.1" cy="1990.8" fill="#480202" opacity=".077" rx="35.3" ry="124.8" transform="rotate(-89.894 2014.116 1990.792)"></ellipse><ellipse cx="2014.1" cy="1990.8" fill="#460303" opacity=".115" rx="34.4" ry="121.6" transform="rotate(-89.894 2014.116 1990.792)"></ellipse><ellipse cx="2014.1" cy="1990.8" fill="#440404" opacity=".154" rx="33.5" ry="118.5" transform="rotate(-89.894 2014.116 1990.792)"></ellipse><ellipse cx="2014.1" cy="1990.8" fill="#420505" opacity=".192" rx="32.6" ry="115.3" transform="rotate(-89.894 2014.116 1990.792)"></ellipse><ellipse cx="2014.1" cy="1990.8" fill="#400606" opacity=".231" rx="31.7" ry="112.1" transform="rotate(-89.894 2014.116 1990.792)"></ellipse><ellipse cx="2014.1" cy="1990.8" fill="#3e0606" opacity=".269" rx="30.8" ry="108.9" transform="rotate(-89.894 2014.116 1990.792)"></ellipse><ellipse cx="2014.1" cy="1990.8" fill="#3c0707" opacity=".308" rx="29.9" ry="105.8" transform="rotate(-89.894 2014.116 1990.792)"></ellipse><ellipse cx="2014.1" cy="1990.8" fill="#3a0808" opacity=".346" rx="29" ry="102.6" transform="rotate(-89.894 2014.116 1990.792)"></ellipse><ellipse cx="2014.1" cy="1990.8" fill="#380909" opacity=".385" rx="28.1" ry="99.4" transform="rotate(-89.894 2014.116 1990.792)"></ellipse><ellipse cx="2014.1" cy="1990.8" fill="#360a0a" opacity=".423" rx="27.2" ry="96.2" transform="rotate(-89.894 2014.116 1990.792)"></ellipse><ellipse cx="2014.1" cy="1990.8" fill="#340b0b" opacity=".462" rx="26.3" ry="93.1" transform="rotate(-89.894 2014.116 1990.792)"></ellipse><ellipse cx="2014.1" cy="1990.8" fill="#330c0c" opacity=".5" rx="25.4" ry="89.9" transform="rotate(-89.894 2014.116 1990.792)"></ellipse><ellipse cx="2014.1" cy="1990.8" fill="#310d0d" opacity=".538" rx="24.5" ry="86.7" transform="rotate(-89.894 2014.116 1990.792)"></ellipse><ellipse cx="2014.1" cy="1990.8" fill="#2f0e0e" opacity=".577" rx="23.6" ry="83.6" transform="rotate(-89.894 2014.116 1990.792)"></ellipse><ellipse cx="2014.1" cy="1990.8" fill="#2d0f0f" opacity=".615" rx="22.7" ry="80.4" transform="rotate(-89.894 2014.116 1990.792)"></ellipse><ellipse cx="2014.1" cy="1990.8" fill="#2b1010" opacity=".654" rx="21.8" ry="77.2" transform="rotate(-89.894 2014.116 1990.792)"></ellipse><ellipse cx="2014.1" cy="1990.8" fill="#291111" opacity=".692" rx="20.9" ry="74" transform="rotate(-89.894 2014.116 1990.792)"></ellipse><ellipse cx="2014.1" cy="1990.8" fill="#271212" opacity=".731" rx="20.1" ry="70.9" transform="rotate(-89.894 2014.116 1990.792)"></ellipse><ellipse cx="2014.1" cy="1990.8" fill="#251212" opacity=".769" rx="19.2" ry="67.7" transform="rotate(-89.894 2014.116 1990.792)"></ellipse><ellipse cx="2014.1" cy="1990.8" fill="#231313" opacity=".808" rx="18.3" ry="64.5" transform="rotate(-89.894 2014.116 1990.792)"></ellipse><ellipse cx="2014.1" cy="1990.8" fill="#211414" opacity=".846" rx="17.4" ry="61.3" transform="rotate(-89.894 2014.116 1990.792)"></ellipse><ellipse cx="2014.1" cy="1990.8" fill="#1f1515" opacity=".885" rx="16.5" ry="58.2" transform="rotate(-89.894 2014.116 1990.792)"></ellipse><ellipse cx="2014.1" cy="1990.8" fill="#1d1616" opacity=".923" rx="15.6" ry="55" transform="rotate(-89.894 2014.116 1990.792)"></ellipse><ellipse cx="2014.1" cy="1990.8" fill="#1b1717" opacity=".962" rx="14.7" ry="51.8" transform="rotate(-89.894 2014.116 1990.792)"></ellipse><ellipse cx="2014.1" cy="1990.8" fill="#191818" rx="13.8" ry="48.6" transform="rotate(-89.894 2014.116 1990.792)"></ellipse></g><g opacity=".15"><ellipse cx="2168" cy="1628.4" fill="#4c0000" opacity="0" rx="37.1" ry="131.2" transform="rotate(-89.894 2167.96 1628.398)"></ellipse><ellipse cx="2168" cy="1628.4" fill="#4a0101" opacity=".038" rx="36.2" ry="128" transform="rotate(-89.894 2167.96 1628.398)"></ellipse><ellipse cx="2168" cy="1628.4" fill="#480202" opacity=".077" rx="35.3" ry="124.8" transform="rotate(-89.894 2167.96 1628.398)"></ellipse><ellipse cx="2168" cy="1628.4" fill="#460303" opacity=".115" rx="34.4" ry="121.6" transform="rotate(-89.894 2167.96 1628.398)"></ellipse><ellipse cx="2168" cy="1628.4" fill="#440404" opacity=".154" rx="33.5" ry="118.5" transform="rotate(-89.894 2167.96 1628.398)"></ellipse><ellipse cx="2168" cy="1628.4" fill="#420505" opacity=".192" rx="32.6" ry="115.3" transform="rotate(-89.894 2167.96 1628.398)"></ellipse><ellipse cx="2168" cy="1628.4" fill="#400606" opacity=".231" rx="31.7" ry="112.1" transform="rotate(-89.894 2167.96 1628.398)"></ellipse><ellipse cx="2168" cy="1628.4" fill="#3e0606" opacity=".269" rx="30.8" ry="108.9" transform="rotate(-89.894 2167.96 1628.398)"></ellipse><ellipse cx="2168" cy="1628.4" fill="#3c0707" opacity=".308" rx="29.9" ry="105.8" transform="rotate(-89.894 2167.96 1628.398)"></ellipse><ellipse cx="2168" cy="1628.4" fill="#3a0808" opacity=".346" rx="29" ry="102.6" transform="rotate(-89.894 2167.96 1628.398)"></ellipse><ellipse cx="2168" cy="1628.4" fill="#380909" opacity=".385" rx="28.1" ry="99.4" transform="rotate(-89.894 2167.96 1628.398)"></ellipse><ellipse cx="2168" cy="1628.4" fill="#360a0a" opacity=".423" rx="27.2" ry="96.2" transform="rotate(-89.894 2167.96 1628.398)"></ellipse><ellipse cx="2168" cy="1628.4" fill="#340b0b" opacity=".462" rx="26.3" ry="93.1" transform="rotate(-89.894 2167.96 1628.398)"></ellipse><ellipse cx="2168" cy="1628.4" fill="#330c0c" opacity=".5" rx="25.4" ry="89.9" transform="rotate(-89.894 2167.96 1628.398)"></ellipse><ellipse cx="2168" cy="1628.4" fill="#310d0d" opacity=".538" rx="24.5" ry="86.7" transform="rotate(-89.894 2167.96 1628.398)"></ellipse><ellipse cx="2168" cy="1628.4" fill="#2f0e0e" opacity=".577" rx="23.6" ry="83.6" transform="rotate(-89.894 2167.96 1628.398)"></ellipse><ellipse cx="2168" cy="1628.4" fill="#2d0f0f" opacity=".615" rx="22.7" ry="80.4" transform="rotate(-89.894 2167.96 1628.398)"></ellipse><ellipse cx="2168" cy="1628.4" fill="#2b1010" opacity=".654" rx="21.8" ry="77.2" transform="rotate(-89.894 2167.96 1628.398)"></ellipse><ellipse cx="2168" cy="1628.4" fill="#291111" opacity=".692" rx="20.9" ry="74" transform="rotate(-89.894 2167.96 1628.398)"></ellipse><ellipse cx="2168" cy="1628.4" fill="#271212" opacity=".731" rx="20.1" ry="70.9" transform="rotate(-89.894 2167.96 1628.398)"></ellipse><ellipse cx="2168" cy="1628.4" fill="#251212" opacity=".769" rx="19.2" ry="67.7" transform="rotate(-89.894 2167.96 1628.398)"></ellipse><ellipse cx="2168" cy="1628.4" fill="#231313" opacity=".808" rx="18.3" ry="64.5" transform="rotate(-89.894 2167.96 1628.398)"></ellipse><ellipse cx="2168" cy="1628.4" fill="#211414" opacity=".846" rx="17.4" ry="61.3" transform="rotate(-89.894 2167.96 1628.398)"></ellipse><ellipse cx="2168" cy="1628.4" fill="#1f1515" opacity=".885" rx="16.5" ry="58.2" transform="rotate(-89.894 2167.96 1628.398)"></ellipse><ellipse cx="2168" cy="1628.4" fill="#1d1616" opacity=".923" rx="15.6" ry="55" transform="rotate(-89.894 2167.96 1628.398)"></ellipse><ellipse cx="2168" cy="1628.4" fill="#1b1717" opacity=".962" rx="14.7" ry="51.8" transform="rotate(-89.894 2167.96 1628.398)"></ellipse><ellipse cx="2168" cy="1628.4" fill="#191818" rx="13.8" ry="48.6" transform="rotate(-89.894 2167.96 1628.398)"></ellipse></g><g opacity=".15"><ellipse cx="1902" cy="1714.6" fill="#4c0000" opacity="0" rx="37.1" ry="131.2" transform="rotate(-89.894 1901.968 1714.629)"></ellipse><ellipse cx="1902" cy="1714.6" fill="#4a0101" opacity=".038" rx="36.2" ry="128" transform="rotate(-89.894 1901.968 1714.629)"></ellipse><ellipse cx="1902" cy="1714.6" fill="#480202" opacity=".077" rx="35.3" ry="124.8" transform="rotate(-89.894 1901.968 1714.629)"></ellipse><ellipse cx="1902" cy="1714.6" fill="#460303" opacity=".115" rx="34.4" ry="121.6" transform="rotate(-89.894 1901.968 1714.629)"></ellipse><ellipse cx="1902" cy="1714.6" fill="#440404" opacity=".154" rx="33.5" ry="118.5" transform="rotate(-89.894 1901.968 1714.629)"></ellipse><ellipse cx="1902" cy="1714.6" fill="#420505" opacity=".192" rx="32.6" ry="115.3" transform="rotate(-89.894 1901.968 1714.629)"></ellipse><ellipse cx="1902" cy="1714.6" fill="#400606" opacity=".231" rx="31.7" ry="112.1" transform="rotate(-89.894 1901.968 1714.629)"></ellipse><ellipse cx="1902" cy="1714.6" fill="#3e0606" opacity=".269" rx="30.8" ry="108.9" transform="rotate(-89.894 1901.968 1714.629)"></ellipse><ellipse cx="1902" cy="1714.6" fill="#3c0707" opacity=".308" rx="29.9" ry="105.8" transform="rotate(-89.894 1901.968 1714.629)"></ellipse><ellipse cx="1902" cy="1714.6" fill="#3a0808" opacity=".346" rx="29" ry="102.6" transform="rotate(-89.894 1901.968 1714.629)"></ellipse><ellipse cx="1902" cy="1714.6" fill="#380909" opacity=".385" rx="28.1" ry="99.4" transform="rotate(-89.894 1901.968 1714.629)"></ellipse><ellipse cx="1902" cy="1714.6" fill="#360a0a" opacity=".423" rx="27.2" ry="96.2" transform="rotate(-89.894 1901.968 1714.629)"></ellipse><ellipse cx="1902" cy="1714.6" fill="#340b0b" opacity=".462" rx="26.3" ry="93.1" transform="rotate(-89.894 1901.968 1714.629)"></ellipse><ellipse cx="1902" cy="1714.6" fill="#330c0c" opacity=".5" rx="25.4" ry="89.9" transform="rotate(-89.894 1901.968 1714.629)"></ellipse><ellipse cx="1902" cy="1714.6" fill="#310d0d" opacity=".538" rx="24.5" ry="86.7" transform="rotate(-89.894 1901.968 1714.629)"></ellipse><ellipse cx="1902" cy="1714.6" fill="#2f0e0e" opacity=".577" rx="23.6" ry="83.6" transform="rotate(-89.894 1901.968 1714.629)"></ellipse><ellipse cx="1902" cy="1714.6" fill="#2d0f0f" opacity=".615" rx="22.7" ry="80.4" transform="rotate(-89.894 1901.968 1714.629)"></ellipse><ellipse cx="1902" cy="1714.6" fill="#2b1010" opacity=".654" rx="21.8" ry="77.2" transform="rotate(-89.894 1901.968 1714.629)"></ellipse><ellipse cx="1902" cy="1714.6" fill="#291111" opacity=".692" rx="20.9" ry="74" transform="rotate(-89.894 1901.968 1714.629)"></ellipse><ellipse cx="1902" cy="1714.6" fill="#271212" opacity=".731" rx="20.1" ry="70.9" transform="rotate(-89.894 1901.968 1714.629)"></ellipse><ellipse cx="1902" cy="1714.6" fill="#251212" opacity=".769" rx="19.2" ry="67.7" transform="rotate(-89.894 1901.968 1714.629)"></ellipse><ellipse cx="1902" cy="1714.6" fill="#231313" opacity=".808" rx="18.3" ry="64.5" transform="rotate(-89.894 1901.968 1714.629)"></ellipse><ellipse cx="1902" cy="1714.6" fill="#211414" opacity=".846" rx="17.4" ry="61.3" transform="rotate(-89.894 1901.968 1714.629)"></ellipse><ellipse cx="1902" cy="1714.6" fill="#1f1515" opacity=".885" rx="16.5" ry="58.2" transform="rotate(-89.894 1901.968 1714.629)"></ellipse><ellipse cx="1902" cy="1714.6" fill="#1d1616" opacity=".923" rx="15.6" ry="55" transform="rotate(-89.894 1901.968 1714.629)"></ellipse><ellipse cx="1902" cy="1714.6" fill="#1b1717" opacity=".962" rx="14.7" ry="51.8" transform="rotate(-89.894 1901.968 1714.629)"></ellipse><ellipse cx="1902" cy="1714.6" fill="#191818" rx="13.8" ry="48.6" transform="rotate(-89.894 1901.968 1714.629)"></ellipse></g><g opacity=".15"><ellipse cx="1149.5" cy="1618.5" fill="#4c0000" opacity="0" rx="37.1" ry="131.2" transform="rotate(-89.894 1149.465 1618.48)"></ellipse><ellipse cx="1149.5" cy="1618.5" fill="#4a0101" opacity=".038" rx="36.2" ry="128" transform="rotate(-89.894 1149.465 1618.48)"></ellipse><ellipse cx="1149.5" cy="1618.5" fill="#480202" opacity=".077" rx="35.3" ry="124.8" transform="rotate(-89.894 1149.465 1618.48)"></ellipse><ellipse cx="1149.5" cy="1618.5" fill="#460303" opacity=".115" rx="34.4" ry="121.6" transform="rotate(-89.894 1149.465 1618.48)"></ellipse><ellipse cx="1149.5" cy="1618.5" fill="#440404" opacity=".154" rx="33.5" ry="118.5" transform="rotate(-89.894 1149.465 1618.48)"></ellipse><ellipse cx="1149.5" cy="1618.5" fill="#420505" opacity=".192" rx="32.6" ry="115.3" transform="rotate(-89.894 1149.465 1618.48)"></ellipse><ellipse cx="1149.5" cy="1618.5" fill="#400606" opacity=".231" rx="31.7" ry="112.1" transform="rotate(-89.894 1149.465 1618.48)"></ellipse><ellipse cx="1149.5" cy="1618.5" fill="#3e0606" opacity=".269" rx="30.8" ry="108.9" transform="rotate(-89.894 1149.465 1618.48)"></ellipse><ellipse cx="1149.5" cy="1618.5" fill="#3c0707" opacity=".308" rx="29.9" ry="105.8" transform="rotate(-89.894 1149.465 1618.48)"></ellipse><ellipse cx="1149.5" cy="1618.5" fill="#3a0808" opacity=".346" rx="29" ry="102.6" transform="rotate(-89.894 1149.465 1618.48)"></ellipse><ellipse cx="1149.5" cy="1618.5" fill="#380909" opacity=".385" rx="28.1" ry="99.4" transform="rotate(-89.894 1149.465 1618.48)"></ellipse><ellipse cx="1149.5" cy="1618.5" fill="#360a0a" opacity=".423" rx="27.2" ry="96.2" transform="rotate(-89.894 1149.465 1618.48)"></ellipse><ellipse cx="1149.5" cy="1618.5" fill="#340b0b" opacity=".462" rx="26.3" ry="93.1" transform="rotate(-89.894 1149.465 1618.48)"></ellipse><ellipse cx="1149.5" cy="1618.5" fill="#330c0c" opacity=".5" rx="25.4" ry="89.9" transform="rotate(-89.894 1149.465 1618.48)"></ellipse><ellipse cx="1149.5" cy="1618.5" fill="#310d0d" opacity=".538" rx="24.5" ry="86.7" transform="rotate(-89.894 1149.465 1618.48)"></ellipse><ellipse cx="1149.5" cy="1618.5" fill="#2f0e0e" opacity=".577" rx="23.6" ry="83.6" transform="rotate(-89.894 1149.465 1618.48)"></ellipse><ellipse cx="1149.5" cy="1618.5" fill="#2d0f0f" opacity=".615" rx="22.7" ry="80.4" transform="rotate(-89.894 1149.465 1618.48)"></ellipse><ellipse cx="1149.5" cy="1618.5" fill="#2b1010" opacity=".654" rx="21.8" ry="77.2" transform="rotate(-89.894 1149.465 1618.48)"></ellipse><ellipse cx="1149.5" cy="1618.5" fill="#291111" opacity=".692" rx="20.9" ry="74" transform="rotate(-89.894 1149.465 1618.48)"></ellipse><ellipse cx="1149.5" cy="1618.5" fill="#271212" opacity=".731" rx="20.1" ry="70.9" transform="rotate(-89.894 1149.465 1618.48)"></ellipse><ellipse cx="1149.5" cy="1618.5" fill="#251212" opacity=".769" rx="19.2" ry="67.7" transform="rotate(-89.894 1149.465 1618.48)"></ellipse><ellipse cx="1149.5" cy="1618.5" fill="#231313" opacity=".808" rx="18.3" ry="64.5" transform="rotate(-89.894 1149.465 1618.48)"></ellipse><ellipse cx="1149.5" cy="1618.5" fill="#211414" opacity=".846" rx="17.4" ry="61.3" transform="rotate(-89.894 1149.465 1618.48)"></ellipse><ellipse cx="1149.5" cy="1618.5" fill="#1f1515" opacity=".885" rx="16.5" ry="58.2" transform="rotate(-89.894 1149.465 1618.48)"></ellipse><ellipse cx="1149.5" cy="1618.5" fill="#1d1616" opacity=".923" rx="15.6" ry="55" transform="rotate(-89.894 1149.465 1618.48)"></ellipse><ellipse cx="1149.5" cy="1618.5" fill="#1b1717" opacity=".962" rx="14.7" ry="51.8" transform="rotate(-89.894 1149.465 1618.48)"></ellipse><ellipse cx="1149.5" cy="1618.5" fill="#191818" rx="13.8" ry="48.6" transform="rotate(-89.894 1149.465 1618.48)"></ellipse></g><linearGradient id="m" x1="-1609.269" x2="-1804.276" y1="819.361" y2="819.361" gradientTransform="rotate(-30.996 1199.31 -5615.323)" gradientUnits="userSpaceOnUse"><stop offset="0" stop-color="#6b402e"></stop><stop offset="1" stop-color="#282827"></stop></linearGradient><path fill="url(#m)" d="M2109.6,1294.6c-29.9-16-85.2-7.5-137.7,24.1c-52.5,31.5-86,76.3-85.9,110.2l-5.3,3.2l15.7,26.1     c0,0,0.3,0,0.7,0c24.9,31.5,100.5,62.2,180.7,14c68.7-41.3,69.5-100.7,57.4-138.1c-6.1-18.8-20.4-42.7-20.4-42.7L2109.6,1294.6z"></path><linearGradient id="n" x1="-1808.296" x2="-1566.494" y1="756.436" y2="817.116" gradientTransform="rotate(-30.996 1199.31 -5615.323)" gradientUnits="userSpaceOnUse"><stop offset="0" stop-color="#6b402e"></stop><stop offset="1" stop-color="#282827"></stop></linearGradient><path fill="url(#n)" d="M2117.4,1295.5c20.4,33.9-15.5,92.9-80.1,131.7c-64.6,38.8-133.5,42.8-153.9,8.9s15.5-92.9,80.1-131.7     C2028.1,1265.6,2097,1261.6,2117.4,1295.5z"></path><path fill="#161110" d="M1886.3,1433.7c-2.7,2.7-5.9-1.2-4.1-4.5c15.9-29.5,38.3-63.4,124.2-68.3c61.7-3.6,87.3-48.5,97.6-74.9     c1.2-3,5.7-1.7,5.2,1.5c-4,23.8-14.5,67.1-64.4,89.5C1976,1407.9,1954.5,1365.8,1886.3,1433.7z"></path><linearGradient id="o" x1="-1845.766" x2="-1572.783" y1="816.64" y2="816.64" gradientTransform="rotate(-30.996 1199.31 -5615.323)" gradientUnits="userSpaceOnUse"><stop offset="0" stop-color="#6b402e"></stop><stop offset="1" stop-color="#f7dda9"></stop></linearGradient><path fill="url(#o)" d="M2036.3,1425.6c-64.1,38.5-132.4,42.7-153.4,9.7c0.2,0.3,0.3,0.6,0.4,0.8c20.4,33.9,89.3,29.9,153.9-8.9     c64.6-38.8,100.5-97.8,80.1-131.7c-0.2-0.3-0.4-0.5-0.5-0.8C2136.2,1328.8,2100.4,1387.1,2036.3,1425.6z"></path><linearGradient id="p" x1="-4712.414" x2="-4907.421" y1="-475.333" y2="-475.333" gradientTransform="scale(-1 1) rotate(-30.997 809.37 -4208.78)" gradientUnits="userSpaceOnUse"><stop offset="0" stop-color="#6b402e"></stop><stop offset="1" stop-color="#282827"></stop></linearGradient><path fill="url(#p)" d="M1997.1,1783.1c29.9-16,85.2-7.5,137.7,24.1c52.5,31.5,86,76.3,85.9,110.2l5.3,3.2l-15.7,26.1     c0,0-0.3,0-0.7,0c-24.9,31.5-100.5,62.2-180.7,14c-68.7-41.3-69.5-100.7-57.4-138.1c6.1-18.8,20.4-42.7,20.4-42.7L1997.1,1783.1z     "></path><linearGradient id="q" x1="-4911.441" x2="-4669.639" y1="-538.258" y2="-477.578" gradientTransform="scale(-1 1) rotate(-30.997 809.37 -4208.78)" gradientUnits="userSpaceOnUse"><stop offset="0" stop-color="#6b402e"></stop><stop offset="1" stop-color="#282827"></stop></linearGradient><path fill="url(#q)" d="M1989.4,1784c-20.4,33.9,15.5,92.9,80.1,131.7c64.6,38.8,133.5,42.8,153.9,8.9     c20.4-33.9-15.5-92.9-80.1-131.7C2078.7,1754,2009.8,1750,1989.4,1784z"></path><path fill="#161110" d="M2220.5,1922.1c2.7,2.7,5.9-1.2,4.1-4.5c-15.9-29.5-38.3-63.4-124.2-68.3c-61.7-3.6-87.3-48.5-97.6-74.9     c-1.2-3-5.7-1.7-5.2,1.5c4,23.8,14.5,67.1,64.4,89.5C2130.7,1896.4,2152.3,1854.2,2220.5,1922.1z"></path><linearGradient id="r" x1="-4948.911" x2="-4675.928" y1="-478.055" y2="-478.055" gradientTransform="scale(-1 1) rotate(-30.997 809.37 -4208.78)" gradientUnits="userSpaceOnUse"><stop offset="0" stop-color="#6b402e"></stop><stop offset="1" stop-color="#f7dda9"></stop></linearGradient><path fill="url(#r)" d="M2070.5,1914.1c64.1,38.5,132.4,42.7,153.4,9.7c-0.2,0.3-0.3,0.6-0.4,0.8c-20.4,33.9-89.3,29.9-153.9-8.9     c-64.6-38.8-100.5-97.8-80.1-131.7c0.2-0.3,0.4-0.5,0.5-0.8C1970.6,1817.2,2006.4,1875.5,2070.5,1914.1z"></path><g><linearGradient id="s" x1="-1381.939" x2="-1529.49" y1="1180.073" y2="1180.073" gradientTransform="scale(-1 1) rotate(-15.224 38.824 3202.944)" gradientUnits="userSpaceOnUse"><stop offset="0" stop-color="#6b402e"></stop><stop offset="1" stop-color="#282827"></stop></linearGradient><path fill="url(#s)" d="M1849.6,1586.9c18.4-17.8,60.5-23,105.2-10.8c44.7,12.2,78.3,37.9,85.2,62.6l4.5,1.2l-6,22.2     c0,0-0.2,0.1-0.5,0.1c-11.6,28.1-60.4,66-128.7,47.4c-58.5-15.9-71.3-59-70.2-88.7c0.5-14.9,6.1-35.3,6.1-35.3L1849.6,1586.9z"></path><linearGradient id="t" x1="-1532.531" x2="-1349.573" y1="1132.461" y2="1178.375" gradientTransform="scale(-1 1) rotate(-15.224 38.824 3202.944)" gradientUnits="userSpaceOnUse"><stop offset="0" stop-color="#6b402e"></stop><stop offset="1" stop-color="#282827"></stop></linearGradient><path fill="url(#t)" d="M1844.2,1589.1c-7.9,28.9,30.4,64.5,85.4,79.4c55,15,106,3.7,113.9-25.2c7.9-28.9-30.4-64.5-85.4-79.4     C1903,1549,1852,1560.2,1844.2,1589.1z"></path><path fill="#161110" d="M2040.9,1642.2c2.5,1.4,4-2.1,2-4.1c-17.7-18.2-40.9-38.3-104.5-24.2c-45.7,10.1-73.6-17.4-86.5-34.5     c-1.5-2-4.5-0.1-3.5,2.1c7.8,16.5,24.4,45.8,65.3,51.9C1970.2,1641.9,1977.3,1606.8,2040.9,1642.2z"></path><linearGradient id="u" x1="-1560.882" x2="-1354.332" y1="1178.014" y2="1178.014" gradientTransform="scale(-1 1) rotate(-15.224 38.824 3202.944)" gradientUnits="userSpaceOnUse"><stop offset="0" stop-color="#6b402e"></stop><stop offset="1" stop-color="#f7dda9"></stop></linearGradient><path fill="url(#u)" d="M1930,1667.2c54.6,14.9,105.2,3.9,113.7-24.5c-0.1,0.2-0.1,0.5-0.2,0.7c-7.9,28.9-58.9,40.2-113.9,25.2     c-55-15-93.3-50.5-85.4-79.4c0.1-0.2,0.2-0.4,0.2-0.7C1837.3,1617.2,1875.4,1652.3,1930,1667.2z"></path></g><g><linearGradient id="v" x1="-1401.266" x2="-1548.817" y1="1046.646" y2="1046.646" gradientTransform="scale(-1 1) rotate(-15.224 38.824 3202.944)" gradientUnits="userSpaceOnUse"><stop offset="0" stop-color="#6b402e"></stop><stop offset="1" stop-color="#282827"></stop></linearGradient><path fill="url(#v)" d="M1903.3,1463.3c18.4-17.8,60.5-23,105.2-10.8c44.7,12.2,78.3,37.9,85.2,62.6l4.5,1.2l-6,22.2     c0,0-0.2,0.1-0.5,0.1c-11.6,28.1-60.4,66-128.7,47.4c-58.5-15.9-71.3-59-70.2-88.7c0.5-14.9,6.1-35.3,6.1-35.3L1903.3,1463.3z"></path><linearGradient id="w" x1="-1551.859" x2="-1368.901" y1="999.034" y2="1044.947" gradientTransform="scale(-1 1) rotate(-15.224 38.824 3202.944)" gradientUnits="userSpaceOnUse"><stop offset="0" stop-color="#6b402e"></stop><stop offset="1" stop-color="#282827"></stop></linearGradient><path fill="url(#w)" d="M1897.9,1465.5c-7.9,28.9,30.4,64.5,85.4,79.4s106,3.7,113.9-25.2c7.9-28.9-30.4-64.5-85.4-79.4     C1956.7,1425.3,1905.7,1436.6,1897.9,1465.5z"></path><path fill="#161110" d="M2094.6,1518.6c2.5,1.4,4-2.1,2-4.1c-17.7-18.2-40.9-38.3-104.5-24.2c-45.7,10.1-73.6-17.4-86.5-34.5     c-1.5-2-4.5-0.1-3.5,2.1c7.8,16.5,24.4,45.8,65.3,51.9C2023.9,1518.3,2031,1483.1,2094.6,1518.6z"></path><linearGradient id="x" x1="-1580.209" x2="-1373.659" y1="1044.586" y2="1044.586" gradientTransform="scale(-1 1) rotate(-15.224 38.824 3202.944)" gradientUnits="userSpaceOnUse"><stop offset="0" stop-color="#6b402e"></stop><stop offset="1" stop-color="#f7dda9"></stop></linearGradient><path fill="url(#x)" d="M1983.6,1543.5c54.6,14.9,105.2,3.9,113.7-24.5c-0.1,0.2-0.1,0.5-0.2,0.7c-7.9,28.9-58.9,40.2-113.9,25.2     c-55-15-93.3-50.5-85.4-79.4c0.1-0.2,0.2-0.4,0.2-0.7C1891,1493.6,1929,1528.7,1983.6,1543.5z"></path></g><g><linearGradient id="y" x1="3636.71" x2="3522.573" y1="1890.923" y2="1890.923" gradientTransform="scale(-1 1) rotate(28.156 1396.831 -9628.94)" gradientUnits="userSpaceOnUse"><stop offset="0" stop-color="#6b402e"></stop><stop offset="1" stop-color="#282827"></stop></linearGradient><path fill="url(#y)" d="M2037.1,1570.9c0.9-19.8,21.8-45,53.4-62s64.2-20.3,81.2-10.1l3.2-1.7l8.4,15.7c0,0-0.1,0.2-0.2,0.4     c8.4,22,1.1,69.2-47.2,95c-41.3,22.1-71.5,4.7-86.6-12.6c-7.6-8.7-15.3-23.1-15.3-23.1L2037.1,1570.9z"></path><linearGradient id="z" x1="3520.22" x2="3661.745" y1="1854.093" y2="1889.609" gradientTransform="scale(-1 1) rotate(28.156 1396.831 -9628.94)" gradientUnits="userSpaceOnUse"><stop offset="0" stop-color="#6b402e"></stop><stop offset="1" stop-color="#282827"></stop></linearGradient><path fill="url(#z)" d="M2035.2,1575c10.9,20.4,51.3,20.1,90.2-0.7c38.9-20.8,61.6-54.3,50.6-74.7s-51.3-20.1-90.2,0.7     C2046.9,1521.2,2024.2,1554.6,2035.2,1575z"></path><path fill="#161110" d="M2174,1500.4c2.1-0.5,1.2-3.3-1-3.4c-19.6-0.9-43.3,0.2-71.6,41.9c-20.3,30-50.6,29.3-66.9,26.6     c-1.9-0.3-2.6,2.4-0.8,3c13.2,5.1,38.1,12.8,64.3-5.5C2134.1,1537.8,2119.4,1514.3,2174,1500.4z"></path><linearGradient id="A" x1="3498.29" x2="3658.065" y1="1889.33" y2="1889.33" gradientTransform="scale(-1 1) rotate(28.156 1396.831 -9628.94)" gradientUnits="userSpaceOnUse"><stop offset="0" stop-color="#6b402e"></stop><stop offset="1" stop-color="#f7dda9"></stop></linearGradient><path fill="url(#A)" d="M2124.9,1573.4c38.6-20.7,61.2-53.7,50.9-74.2c0.1,0.2,0.2,0.3,0.3,0.5c10.9,20.4-11.7,53.9-50.6,74.7     c-38.9,20.8-79.3,21.1-90.2,0.7c-0.1-0.2-0.2-0.3-0.2-0.5C2046.2,1594.5,2086.3,1594,2124.9,1573.4z"></path></g><g><linearGradient id="B" x1="4434.369" x2="4285.504" y1="1440.448" y2="1440.448" gradientTransform="scale(-1 1) rotate(28.156 1396.831 -9628.94)" gradientUnits="userSpaceOnUse"><stop offset="0" stop-color="#6b402e"></stop><stop offset="1" stop-color="#282827"></stop></linearGradient><path fill="url(#B)" d="M1112.9,1546c1.2-25.8,28.4-58.7,69.7-80.8c41.2-22.1,83.7-26.5,105.9-13.1l4.2-2.2l11,20.5     c0,0-0.1,0.2-0.3,0.5c10.9,28.6,1.4,90.2-61.6,123.9c-53.9,28.9-93.2,6.1-113-16.4c-10-11.3-20-30.1-20-30.1L1112.9,1546z"></path><linearGradient id="C" x1="4282.435" x2="4467.022" y1="1392.412" y2="1438.735" gradientTransform="scale(-1 1) rotate(28.156 1396.831 -9628.94)" gradientUnits="userSpaceOnUse"><stop offset="0" stop-color="#6b402e"></stop><stop offset="1" stop-color="#282827"></stop></linearGradient><path fill="url(#C)" d="M1110.4,1551.4c14.3,26.6,66.9,26.2,117.7-0.9c50.7-27.2,80.3-70.8,66.1-97.4     c-14.3-26.6-66.9-26.2-117.7,0.9C1125.7,1481.1,1096.2,1524.8,1110.4,1551.4z"></path><path fill="#161110" d="M1291.5,1454c2.8-0.7,1.5-4.3-1.3-4.4c-25.6-1.1-56.5,0.3-93.4,54.6c-26.5,39.1-66,38.2-87.3,34.7     c-2.4-0.4-3.4,3.1-1.1,4c17.2,6.7,49.6,16.7,83.9-7.2C1239.4,1502.7,1220.3,1472.1,1291.5,1454z"></path><linearGradient id="D" x1="4253.832" x2="4462.222" y1="1438.371" y2="1438.371" gradientTransform="scale(-1 1) rotate(28.156 1396.831 -9628.94)" gradientUnits="userSpaceOnUse"><stop offset="0" stop-color="#6b402e"></stop><stop offset="1" stop-color="#f7dda9"></stop></linearGradient><path fill="url(#D)" d="M1227.4,1549.2c50.3-26.9,79.8-70.1,66.4-96.7c0.1,0.2,0.3,0.4,0.4,0.6c14.3,26.6-15.3,70.2-66.1,97.4     c-50.7,27.2-103.4,27.6-117.7,0.9c-0.1-0.2-0.2-0.4-0.3-0.7C1124.9,1576.7,1177.1,1576.1,1227.4,1549.2z"></path></g><g><linearGradient id="E" x1="130.955" x2="32.982" y1="2100.997" y2="2100.997" gradientTransform="matrix(-.9999 .01362 .01367 1 2345.97 -319.916)" gradientUnits="userSpaceOnUse"><stop offset="0" stop-color="#6b402e"></stop><stop offset="1" stop-color="#282827"></stop></linearGradient><path fill="url(#E)" d="M2228.2,1761.5c8.5-14.8,34.4-25.7,65.2-26.1c30.8-0.4,56.9,9.8,65.8,24.4l3.1,0l0.2,15.3     c0,0-0.1,0.1-0.3,0.2c-2.3,20-26.4,53.2-73.5,53.8c-40.3,0.5-56.3-24.6-61.1-43.8c-2.4-9.6-2.6-23.6-2.6-23.6L2228.2,1761.5z"></path><linearGradient id="F" x1="30.962" x2="152.446" y1="2069.382" y2="2099.869" gradientTransform="matrix(-.9999 .01362 .01367 1 2345.97 -319.916)" gradientUnits="userSpaceOnUse"><stop offset="0" stop-color="#6b402e"></stop><stop offset="1" stop-color="#282827"></stop></linearGradient><path fill="url(#F)" d="M2225.1,1763.9c0.3,19.9,31.2,35.6,69.1,35.1c37.9-0.5,68.3-17.1,68.1-36.9c-0.3-19.9-31.2-35.6-69.1-35.1     C2255.4,1727.5,2224.9,1744,2225.1,1763.9z"></path><path fill="#161110" d="M2360.4,1761.8c1.8,0.4,2.2-2.1,0.6-3c-14.6-8.4-33.1-17-71.1,3.7c-27.3,14.8-50.1,2.4-61.5-6.2     c-1.3-1-2.9,0.8-1.8,2c8,9.1,24,24.8,51.2,21.2C2315.3,1774.5,2313.3,1750.8,2360.4,1761.8z"></path><linearGradient id="G" x1="12.137" x2="149.287" y1="2099.629" y2="2099.629" gradientTransform="matrix(-.9999 .01362 .01367 1 2345.97 -319.916)" gradientUnits="userSpaceOnUse"><stop offset="0" stop-color="#6b402e"></stop><stop offset="1" stop-color="#f7dda9"></stop></linearGradient><path fill="url(#G)" d="M2294.2,1798c37.6-0.5,67.8-16.8,68.1-36.5c0,0.2,0,0.3,0,0.5c0.3,19.9-30.2,36.4-68.1,36.9     s-68.8-15.2-69.1-35.1c0-0.2,0-0.3,0-0.5C2225.9,1783.1,2256.6,1798.5,2294.2,1798z"></path></g><g><g opacity=".15"><path fill="#4c0000" d="M764.4,1642.3c-0.1,34.7,68.3,63,152.7,63.2s152.8-27.9,152.9-62.6s-68.3-63-152.7-63.2     S764.5,1607.5,764.4,1642.3z" opacity="0"></path><path fill="#4a0101" d="M768.1,1642.3c-0.1,33.9,66.6,61.5,149,61.6s149.1-27.2,149.2-61.1c0.1-33.9-66.6-61.5-149-61.6     C835,1581,768.2,1608.4,768.1,1642.3z" opacity=".038"></path><path fill="#480202" d="M771.8,1642.3c-0.1,33,65,60,145.3,60.1c80.3,0.1,145.4-26.5,145.5-59.6c0.1-33-65-60-145.3-60.1     C837,1582.6,771.9,1609.2,771.8,1642.3z" opacity=".077"></path><path fill="#460303" d="M775.5,1642.3c-0.1,32.2,63.3,58.4,141.6,58.6c78.2,0.1,141.7-25.8,141.8-58.1     c0.1-32.2-63.3-58.4-141.6-58.6S775.6,1610.1,775.5,1642.3z" opacity=".115"></path><path fill="#440404" d="M779.2,1642.3c-0.1,31.4,61.7,56.9,137.9,57.1s138-25.2,138.1-56.5c0.1-31.4-61.7-56.9-137.9-57.1     S779.3,1610.9,779.2,1642.3z" opacity=".154"></path><path fill="#420505" d="M782.9,1642.3c-0.1,30.5,60,55.4,134.2,55.5s134.3-24.5,134.4-55c0.1-30.5-60-55.4-134.2-55.5     S783,1611.8,782.9,1642.3z" opacity=".192"></path><ellipse cx="917.2" cy="1642.5" fill="#400606" opacity=".231" rx="53.8" ry="130.6" transform="rotate(-89.893 917.22 1642.547)"></ellipse><ellipse cx="917.2" cy="1642.5" fill="#3e0606" opacity=".269" rx="52.2" ry="126.9" transform="rotate(-89.893 917.22 1642.547)"></ellipse><ellipse cx="917.2" cy="1642.5" fill="#3c0707" opacity=".308" rx="50.7" ry="123.2" transform="rotate(-89.893 917.22 1642.547)"></ellipse><ellipse cx="917.2" cy="1642.5" fill="#3a0808" opacity=".346" rx="49.2" ry="119.5" transform="rotate(-89.893 917.22 1642.547)"></ellipse><ellipse cx="917.2" cy="1642.5" fill="#380909" opacity=".385" rx="47.7" ry="115.8" transform="rotate(-89.893 917.22 1642.547)"></ellipse><ellipse cx="917.2" cy="1642.5" fill="#360a0a" opacity=".423" rx="46.1" ry="112.1" transform="rotate(-89.893 917.22 1642.547)"></ellipse><ellipse cx="917.2" cy="1642.5" fill="#340b0b" opacity=".462" rx="44.6" ry="108.4" transform="rotate(-89.893 917.22 1642.547)"></ellipse><ellipse cx="917.2" cy="1642.5" fill="#330c0c" opacity=".5" rx="43.1" ry="104.7" transform="rotate(-89.893 917.22 1642.547)"></ellipse><ellipse cx="917.2" cy="1642.5" fill="#310d0d" opacity=".538" rx="41.6" ry="101" transform="rotate(-89.893 917.22 1642.547)"></ellipse><ellipse cx="917.2" cy="1642.5" fill="#2f0e0e" opacity=".577" rx="40.1" ry="97.3" transform="rotate(-89.893 917.22 1642.547)"></ellipse><ellipse cx="917.2" cy="1642.5" fill="#2d0f0f" opacity=".615" rx="38.5" ry="93.6" transform="rotate(-89.893 917.22 1642.547)"></ellipse><ellipse cx="917.2" cy="1642.5" fill="#2b1010" opacity=".654" rx="37" ry="89.9" transform="rotate(-89.893 917.22 1642.547)"></ellipse><ellipse cx="917.2" cy="1642.5" fill="#291111" opacity=".692" rx="35.5" ry="86.2" transform="rotate(-89.893 917.22 1642.547)"></ellipse><ellipse cx="917.2" cy="1642.5" fill="#271212" opacity=".731" rx="34" ry="82.5" transform="rotate(-89.893 917.22 1642.547)"></ellipse><ellipse cx="917.2" cy="1642.5" fill="#251212" opacity=".769" rx="32.4" ry="78.8" transform="rotate(-89.893 917.22 1642.547)"></ellipse><ellipse cx="917.2" cy="1642.5" fill="#231313" opacity=".808" rx="30.9" ry="75.1" transform="rotate(-89.893 917.22 1642.547)"></ellipse><ellipse cx="917.2" cy="1642.5" fill="#211414" opacity=".846" rx="29.4" ry="71.4" transform="rotate(-89.893 917.22 1642.547)"></ellipse><ellipse cx="917.2" cy="1642.5" fill="#1f1515" opacity=".885" rx="27.9" ry="67.7" transform="rotate(-89.893 917.22 1642.547)"></ellipse><ellipse cx="917.2" cy="1642.5" fill="#1d1616" opacity=".923" rx="26.4" ry="64" transform="rotate(-89.893 917.22 1642.547)"></ellipse><ellipse cx="917.2" cy="1642.5" fill="#1b1717" opacity=".962" rx="24.8" ry="60.3" transform="rotate(-89.893 917.22 1642.547)"></ellipse><ellipse cx="917.2" cy="1642.5" fill="#191818" rx="23.3" ry="56.6" transform="rotate(-89.893 917.22 1642.547)"></ellipse></g><linearGradient id="H" x1="-2422.591" x2="-1722.601" y1="902.178" y2="902.178" gradientTransform="matrix(.882 -.4714 .4714 .8818 2615.72 -128.061)" gradientUnits="userSpaceOnUse"><stop offset=".177" stop-color="#fafafa"></stop><stop offset="1" stop-color="#cecbcb"></stop></linearGradient><path fill="url(#H)" d="M792.3,1500c-37.8,89.6,23.4,162.4,126.2,175s141.8-39.5,155-33.7c13.2,5.9,359.2,141.5,437.2,172.2    c16.1,6.3,30.3,11.9,42.7,16.8c37.5,14.6,79.7-5.3,92.2-43.6l8.3-25.4c9.7-29.8-8.4-61.4-39-68.1    c-140.3-30.5-491.8-109.2-516.2-138.7c-30.6-36.9-37-69-109.7-107C916.2,1409.6,820.1,1434.2,792.3,1500z"></path><linearGradient id="I" x1="1061.807" x2="825.848" y1="1513.932" y2="1564.366" gradientUnits="userSpaceOnUse"><stop offset=".177" stop-color="#fafafa"></stop><stop offset="1" stop-color="#cecbcb"></stop></linearGradient><path fill="url(#I)" d="M881.5,1443.8c-41.4,8.2-92.6,50.2-75.6,122.8c17,72.6,159.3,91.8,231.5,57c72.2-34.8,52-76.2,10.2-121.4    C1005.7,1457,951.2,1430.1,881.5,1443.8z"></path></g><linearGradient id="J" x1="1129.3" x2="1806.524" y1="1221.426" y2="859.421" gradientUnits="userSpaceOnUse"><stop offset="0" stop-color="#cc9e7f" stop-opacity=".3"></stop><stop offset="1" stop-color="#c17e48"></stop></linearGradient><path fill="url(#J)" d="M1888.1,1012.1c-70.1,80.2-247.2,137.1-454.5,137.1c-158.6,0-299.5-33.3-388.4-84.9   c9.4-34.5,61.8-31.6,102-2.8c67.5,48.3,204.7,72.4,157.6,17.1c-47.1-55.3,38.9-79.8,177.8-4.5c139,75.3,274.6-13.9,157.9-22.1   c-116.7-8.2,12.3-110.5-127-121.5c-139.1-10.9-94.1-55.5-94.1-55.5c4.7-0.1,9.4-0.1,14.1-0.1   C1641.1,875,1818.1,931.9,1888.1,1012.1z" opacity=".71"></path></svg>